<?xml version="1.0" encoding="utf-8"?>
<!-- Generated by Mocodo 4.2.4 -->
<svg width="789" height="365" viewBox="0 0 789 365" xmlns="http://www.w3.org/2000/svg">
<rect x="0" y="0" width="789" height="365" fill="#f7f7f7" stroke="none" stroke-width="0"/>

<!-- Association SUBSCRIBE -->
<g>
	<line x1="320" y1="94" x2="188" y2="94" stroke="#5aae61" stroke-width="2"/>
	<line x1="61" y1="94" x2="188" y2="94" stroke="#5aae61" stroke-width="2"/>
	<g>
		<path d="M217 69 a14 14 90 0 1 14 14 V94 h-86 V83 a14 14 90 0 1 14 -14" fill="#a6dba0" stroke="#a6dba0" stroke-width="0"/>
		<path d="M231 94 v11 a14 14 90 0 1 -14 14 H159 a14 14 90 0 1 -14 -14 V94 H86" fill="#d9f0d3" stroke="#d9f0d3" stroke-width="0"/>
		<rect x="145" y="69" width="86" height="50" fill="none" rx="14" stroke="#5aae61" stroke-width="2"/>
		<line x1="145" y1="94" x2="231" y2="94" stroke="#5aae61" stroke-width="1"/>
		<text x="152" y="86.75" fill="#000000" font-family="Verdana" font-size="12">SUBSCRIBE</text>
	</g>
	<text x="237" y="111" fill="#762a83" font-family="Verdana" font-size="12">1,1</text>
	<text x="118" y="111" fill="#762a83" font-family="Verdana" font-size="12">0,N</text>
</g>

<!-- Association CONTAIN -->
<g>
	<line x1="583" y1="94" x2="445" y2="94" stroke="#5aae61" stroke-width="2"/>
	<line x1="320" y1="94" x2="445" y2="94" stroke="#5aae61" stroke-width="2"/>
	<g>
		<path d="M467 69 a14 14 90 0 1 14 14 V94 h-72 V83 a14 14 90 0 1 14 -14" fill="#a6dba0" stroke="#a6dba0" stroke-width="0"/>
		<path d="M481 94 v11 a14 14 90 0 1 -14 14 H423 a14 14 90 0 1 -14 -14 V94 H72" fill="#d9f0d3" stroke="#d9f0d3" stroke-width="0"/>
		<rect x="409" y="69" width="72" height="50" fill="none" rx="14" stroke="#5aae61" stroke-width="2"/>
		<line x1="409" y1="94" x2="481" y2="94" stroke="#5aae61" stroke-width="1"/>
		<text x="416" y="86.75" fill="#000000" font-family="Verdana" font-size="12">CONTAIN</text>
	</g>
	<text x="487" y="111" fill="#762a83" font-family="Verdana" font-size="12">1,1</text>
	<text x="382" y="111" fill="#762a83" font-family="Verdana" font-size="12">1,N</text>
</g>

<!-- Association MADE_OF1 -->
<g>
	<line x1="722" y1="280" x2="722" y2="94" stroke="#5aae61" stroke-width="2"/>
	<line x1="583" y1="94" x2="722" y2="94" stroke="#5aae61" stroke-width="2"/>
	<g>
		<path d="M745 69 a14 14 90 0 1 14 14 V94 h-74 V83 a14 14 90 0 1 14 -14" fill="#a6dba0" stroke="#a6dba0" stroke-width="0"/>
		<path d="M759 94 v11 a14 14 90 0 1 -14 14 H699 a14 14 90 0 1 -14 -14 V94 H74" fill="#d9f0d3" stroke="#d9f0d3" stroke-width="0"/>
		<rect x="685" y="69" width="74" height="50" fill="none" rx="14" stroke="#5aae61" stroke-width="2"/>
		<line x1="685" y1="94" x2="759" y2="94" stroke="#5aae61" stroke-width="1"/>
		<text x="692" y="86.75" fill="#000000" font-family="Verdana" font-size="12">MADE_OF</text>
	</g>
	<text x="727" y="213" fill="#762a83" font-family="Verdana" font-size="12">0,N</text>
	<text x="658" y="111" fill="#762a83" font-family="Verdana" font-size="12">1,1</text>
</g>

<!-- Association VALIDATE -->
<g>
	<line x1="188" y1="280" x2="320" y2="280" stroke="#5aae61" stroke-width="2"/>
	<line x1="320" y1="94" x2="320" y2="280" stroke="#5aae61" stroke-width="2"/>
	<g>
		<path d="M344 255 a14 14 90 0 1 14 14 V280 h-76 V269 a14 14 90 0 1 14 -14" fill="#a6dba0" stroke="#a6dba0" stroke-width="0"/>
		<path d="M358 280 v11 a14 14 90 0 1 -14 14 H296 a14 14 90 0 1 -14 -14 V280 H76" fill="#d9f0d3" stroke="#d9f0d3" stroke-width="0"/>
		<rect x="282" y="255" width="76" height="50" fill="none" rx="14" stroke="#5aae61" stroke-width="2"/>
		<line x1="282" y1="280" x2="358" y2="280" stroke="#5aae61" stroke-width="1"/>
		<text x="289" y="272.75" fill="#000000" font-family="Verdana" font-size="12">VALIDATE</text>
	</g>
	<text x="230" y="297" fill="#762a83" font-family="Verdana" font-size="12">0,n</text>
	<text x="325" y="187" fill="#762a83" font-family="Verdana" font-size="12">1,1</text>
</g>

<!-- Association MADE_OF2 -->
<g>
	<line x1="445" y1="280" x2="583" y2="280" stroke="#5aae61" stroke-width="2"/>
	<line x1="583" y1="94" x2="583" y2="280" stroke="#5aae61" stroke-width="2"/>
	<g>
		<path d="M606 255 a14 14 90 0 1 14 14 V280 h-74 V269 a14 14 90 0 1 14 -14" fill="#a6dba0" stroke="#a6dba0" stroke-width="0"/>
		<path d="M620 280 v11 a14 14 90 0 1 -14 14 H560 a14 14 90 0 1 -14 -14 V280 H74" fill="#d9f0d3" stroke="#d9f0d3" stroke-width="0"/>
		<rect x="546" y="255" width="74" height="50" fill="none" rx="14" stroke="#5aae61" stroke-width="2"/>
		<line x1="546" y1="280" x2="620" y2="280" stroke="#5aae61" stroke-width="1"/>
		<text x="553" y="272.75" fill="#000000" font-family="Verdana" font-size="12">MADE_OF</text>
	</g>
	<text x="492" y="297" fill="#762a83" font-family="Verdana" font-size="12">0,N</text>
	<text x="588" y="196" fill="#762a83" font-family="Verdana" font-size="12">0,1</text>
</g>

<!-- Entity CUSTOMER -->
<g>
	<g>
		<rect x="9" y="26" width="104" height="25" fill="#c2a5cf" stroke="none" stroke-width="0" opacity="1"/>
		<rect x="9" y="51" width="104" height="111" fill="#e7d4e8" stroke="none" stroke-width="0" opacity="1"/>
		<rect x="9" y="26" width="104" height="136" fill="none" stroke="#9970ab" stroke-width="2" opacity="1"/>
		<line x1="9" y1="51" x2="113" y2="51" stroke="#9970ab" stroke-width="1"/>
	</g>
	<text x="27" y="43.75" fill="#000000" font-family="Verdana" font-size="12">CUSTOMER</text>
	<text x="14" y="68.8" fill="#000000" font-family="Verdana" font-size="12">customer_code</text>
	<line x1="14" y1="71" x2="107" y2="71" stroke="#000000" stroke-width="1"/>
	<text x="14" y="85.8" fill="#000000" font-family="Verdana" font-size="12">name</text>
	<text x="14" y="102.8" fill="#000000" font-family="Verdana" font-size="12">address</text>
	<text x="14" y="119.8" fill="#000000" font-family="Verdana" font-size="12">email</text>
	<text x="14" y="136.8" fill="#000000" font-family="Verdana" font-size="12">phone_number</text>
	<text x="14" y="153.8" fill="#000000" font-family="Verdana" font-size="12">contact</text>
</g>

<!-- Entity CONTRACT -->
<g>
	<g>
		<rect x="263" y="18" width="114" height="25" fill="#c2a5cf" stroke="none" stroke-width="0" opacity="1"/>
		<rect x="263" y="43" width="114" height="127" fill="#e7d4e8" stroke="none" stroke-width="0" opacity="1"/>
		<rect x="263" y="18" width="114" height="152" fill="none" stroke="#9970ab" stroke-width="2" opacity="1"/>
		<line x1="263" y1="43" x2="377" y2="43" stroke="#9970ab" stroke-width="1"/>
	</g>
	<text x="286" y="35.75" fill="#000000" font-family="Verdana" font-size="12">CONTRACT</text>
	<text x="268" y="60.8" fill="#000000" font-family="Verdana" font-size="12">contract_code</text>
	<line x1="268" y1="63" x2="354" y2="63" stroke="#000000" stroke-width="1"/>
	<text x="268" y="77.8" fill="#000000" font-family="Verdana" font-size="12">type</text>
	<text x="268" y="94.8" fill="#000000" font-family="Verdana" font-size="12">ordered_at</text>
	<text x="268" y="111.8" fill="#000000" font-family="Verdana" font-size="12">invoiced_at</text>
	<text x="268" y="128.8" fill="#000000" font-family="Verdana" font-size="12">delivery_address</text>
	<text x="268" y="145.8" fill="#000000" font-family="Verdana" font-size="12">status</text>
	<text x="268" y="162.8" fill="#000000" font-family="Verdana" font-size="12">comment</text>
</g>

<!-- Entity PRODUCT -->
<g>
	<g>
		<rect x="513" y="9" width="140" height="25" fill="#c2a5cf" stroke="none" stroke-width="0" opacity="1"/>
		<rect x="513" y="34" width="140" height="145" fill="#e7d4e8" stroke="none" stroke-width="0" opacity="1"/>
		<rect x="513" y="9" width="140" height="170" fill="none" stroke="#9970ab" stroke-width="2" opacity="1"/>
		<line x1="513" y1="34" x2="653" y2="34" stroke="#9970ab" stroke-width="1"/>
	</g>
	<text x="553" y="26.75" fill="#000000" font-family="Verdana" font-size="12">PRODUCT</text>
	<text x="518" y="51.8" fill="#000000" font-family="Verdana" font-size="12">product_code</text>
	<line x1="518" y1="54" x2="601" y2="54" stroke="#000000" stroke-width="1"/>
	<text x="518" y="68.8" fill="#000000" font-family="Verdana" font-size="12">name</text>
	<text x="518" y="85.8" fill="#000000" font-family="Verdana" font-size="12">quantity</text>
	<text x="518" y="102.8" fill="#000000" font-family="Verdana" font-size="12">price</text>
	<text x="518" y="119.8" fill="#000000" font-family="Verdana" font-size="12">manufacturing_delay</text>
	<text x="518" y="136.8" fill="#000000" font-family="Verdana" font-size="12">delivery_at</text>
	<text x="518" y="153.8" fill="#000000" font-family="Verdana" font-size="12">product_order</text>
	<text x="518" y="170.8" fill="#000000" font-family="Verdana" font-size="12">comment</text>
</g>

<!-- Entity USER -->
<g>
	<g>
		<rect x="151" y="229" width="74" height="25" fill="#c2a5cf" stroke="none" stroke-width="0" opacity="1"/>
		<rect x="151" y="254" width="74" height="77" fill="#e7d4e8" stroke="none" stroke-width="0" opacity="1"/>
		<rect x="151" y="229" width="74" height="102" fill="none" stroke="#9970ab" stroke-width="2" opacity="1"/>
		<line x1="151" y1="254" x2="225" y2="254" stroke="#9970ab" stroke-width="1"/>
	</g>
	<text x="171" y="246.75" fill="#000000" font-family="Verdana" font-size="12">USER</text>
	<text x="156" y="271.8" fill="#000000" font-family="Verdana" font-size="12">user_code</text>
	<line x1="156" y1="274" x2="219" y2="274" stroke="#000000" stroke-width="1"/>
	<text x="156" y="288.8" fill="#000000" font-family="Verdana" font-size="12">pseudo</text>
	<text x="156" y="305.8" fill="#000000" font-family="Verdana" font-size="12">password</text>
	<text x="156" y="322.8" fill="#000000" font-family="Verdana" font-size="12">role</text>
</g>

<!-- Entity TEXTILE -->
<g>
	<g>
		<rect x="403" y="204" width="84" height="25" fill="#c2a5cf" stroke="none" stroke-width="0" opacity="1"/>
		<rect x="403" y="229" width="84" height="127" fill="#e7d4e8" stroke="none" stroke-width="0" opacity="1"/>
		<rect x="403" y="204" width="84" height="152" fill="none" stroke="#9970ab" stroke-width="2" opacity="1"/>
		<line x1="403" y1="229" x2="487" y2="229" stroke="#9970ab" stroke-width="1"/>
	</g>
	<text x="420" y="221.75" fill="#000000" font-family="Verdana" font-size="12">TEXTILE</text>
	<text x="408" y="246.8" fill="#000000" font-family="Verdana" font-size="12">textile_code</text>
	<line x1="408" y1="249" x2="482" y2="249" stroke="#000000" stroke-width="1"/>
	<text x="408" y="263.8" fill="#000000" font-family="Verdana" font-size="12">name</text>
	<text x="408" y="280.8" fill="#000000" font-family="Verdana" font-size="12">type</text>
	<text x="408" y="297.8" fill="#000000" font-family="Verdana" font-size="12">size</text>
	<text x="408" y="314.8" fill="#000000" font-family="Verdana" font-size="12">color</text>
	<text x="408" y="331.8" fill="#000000" font-family="Verdana" font-size="12">brand</text>
	<text x="408" y="348.8" fill="#000000" font-family="Verdana" font-size="12">comment</text>
</g>

<!-- Entity EMBROIDERY -->
<g>
	<g>
		<rect x="664" y="221" width="116" height="25" fill="#c2a5cf" stroke="none" stroke-width="0" opacity="1"/>
		<rect x="664" y="246" width="116" height="93" fill="#e7d4e8" stroke="none" stroke-width="0" opacity="1"/>
		<rect x="664" y="221" width="116" height="118" fill="none" stroke="#9970ab" stroke-width="2" opacity="1"/>
		<line x1="664" y1="246" x2="780" y2="246" stroke="#9970ab" stroke-width="1"/>
	</g>
	<text x="681" y="238.75" fill="#000000" font-family="Verdana" font-size="12">EMBROIDERY</text>
	<text x="669" y="263.8" fill="#000000" font-family="Verdana" font-size="12">embroidery_code</text>
	<line x1="669" y1="266" x2="775" y2="266" stroke="#000000" stroke-width="1"/>
	<text x="669" y="280.8" fill="#000000" font-family="Verdana" font-size="12">name</text>
	<text x="669" y="297.8" fill="#000000" font-family="Verdana" font-size="12">design</text>
	<text x="669" y="314.8" fill="#000000" font-family="Verdana" font-size="12">text</text>
	<text x="669" y="331.8" fill="#000000" font-family="Verdana" font-size="12">detail</text>
</g>
</svg>