<?xml version="1.0" encoding="utf-8"?>
<!-- Generated by Mocodo 4.1.2 -->
<svg width="361" height="329" viewBox="0 0 361 329" xmlns="http://www.w3.org/2000/svg">
<rect x="0" y="0" width="361" height="329" fill="#ffffbf" stroke="none" stroke-width="0"/>

<!-- Association IS_A -->
<g>
	<line x1="32" y1="135" x2="105" y2="135" stroke="#f46d43" stroke-width="2"/>
	<line x1="194" y1="135" x2="105" y2="135" stroke="#f46d43" stroke-width="2"/>
	<g>
		<path d="M109 110 a14 14 90 0 1 14 14 V135 h-36 V124 a14 14 90 0 1 14 -14" fill="#fdae61" stroke="#fdae61" stroke-width="0"/>
		<path d="M123 135 v11 a14 14 90 0 1 -14 14 H101 a14 14 90 0 1 -14 -14 V135 H36" fill="#fee090" stroke="#fee090" stroke-width="0"/>
		<rect x="87" y="110" width="36" height="50" fill="none" rx="14" stroke="#f46d43" stroke-width="2"/>
		<line x1="87" y1="135" x2="123" y2="135" stroke="#f46d43" stroke-width="1"/>
		<text x="94" y="127.75" fill="#000000" font-family="Verdana" font-size="12">is a</text>
	</g>
	<text x="60" y="152" fill="#4575b4" font-family="Verdana" font-size="12">0,N</text>
	<text x="129" y="152" fill="#4575b4" font-family="Verdana" font-size="12">1,1</text>
</g>

<!-- Association MADE -->
<g>
	<line x1="311" y1="34" x2="311" y2="135" stroke="#f46d43" stroke-width="2"/>
	<line x1="194" y1="135" x2="311" y2="135" stroke="#f46d43" stroke-width="2"/>
	<g>
		<path d="M322 110 a14 14 90 0 1 14 14 V135 h-50 V124 a14 14 90 0 1 14 -14" fill="#fdae61" stroke="#fdae61" stroke-width="0"/>
		<path d="M336 135 v11 a14 14 90 0 1 -14 14 H300 a14 14 90 0 1 -14 -14 V135 H50" fill="#fee090" stroke="#fee090" stroke-width="0"/>
		<rect x="286" y="110" width="50" height="50" fill="none" rx="14" stroke="#f46d43" stroke-width="2"/>
		<line x1="286" y1="135" x2="336" y2="135" stroke="#f46d43" stroke-width="1"/>
		<text x="294" y="127.75" fill="#000000" font-family="Verdana" font-size="12">made</text>
	</g>
	<text x="316" y="76" fill="#4575b4" font-family="Verdana" font-size="12">0,N</text>
	<text x="238" y="152" fill="#4575b4" font-family="Verdana" font-size="12">1,1</text>
</g>

<!-- Association IS_TAGGED_AS -->
<g>
	<line x1="194" y1="135" x2="194" y2="261" stroke="#f46d43" stroke-width="2"/>
	<line x1="311" y1="261" x2="194" y2="261" stroke="#f46d43" stroke-width="2"/>
	<g>
		<path d="M224 236 a14 14 90 0 1 14 14 V261 h-88 V250 a14 14 90 0 1 14 -14" fill="#fdae61" stroke="#fdae61" stroke-width="0"/>
		<path d="M238 261 v11 a14 14 90 0 1 -14 14 H164 a14 14 90 0 1 -14 -14 V261 H88" fill="#fee090" stroke="#fee090" stroke-width="0"/>
		<rect x="150" y="236" width="88" height="50" fill="none" rx="14" stroke="#f46d43" stroke-width="2"/>
		<line x1="150" y1="261" x2="238" y2="261" stroke="#f46d43" stroke-width="1"/>
		<text x="157" y="253.75" fill="#000000" font-family="Verdana" font-size="12">is tagged as</text>
	</g>
	<text x="199" y="228" fill="#4575b4" font-family="Verdana" font-size="12">0,1</text>
	<text x="243" y="278" fill="#4575b4" font-family="Verdana" font-size="12">0,N</text>
</g>

<!-- Entity BRAND -->
<g>
	<g>
		<rect x="284" y="9" width="54" height="25" fill="#abd9e9" stroke="none" stroke-width="0" opacity="1"/>
		<rect x="284" y="34" width="54" height="25" fill="#e0f3f8" stroke="none" stroke-width="0" opacity="1"/>
		<rect x="284" y="9" width="54" height="50" fill="none" stroke="#74add1" stroke-width="2" opacity="1"/>
		<line x1="284" y1="34" x2="338" y2="34" stroke="#74add1" stroke-width="1"/>
	</g>
	<text x="289" y="26.75" fill="#000000" font-family="Verdana" font-size="12">BRAND</text>
	<text x="289" y="51.8" fill="#000000" font-family="Verdana" font-size="12">name</text>
</g>

<!-- Entity TYPE -->
<g>
	<g>
		<rect x="9" y="110" width="46" height="25" fill="#abd9e9" stroke="none" stroke-width="0" opacity="1"/>
		<rect x="9" y="135" width="46" height="25" fill="#e0f3f8" stroke="none" stroke-width="0" opacity="1"/>
		<rect x="9" y="110" width="46" height="50" fill="none" stroke="#74add1" stroke-width="2" opacity="1"/>
		<line x1="9" y1="135" x2="55" y2="135" stroke="#74add1" stroke-width="1"/>
	</g>
	<text x="17" y="127.75" fill="#000000" font-family="Verdana" font-size="12">TYPE</text>
	<text x="14" y="152.8" fill="#000000" font-family="Verdana" font-size="12">name</text>
</g>

<!-- Entity PRODUCT -->
<g>
	<g>
		<rect x="155" y="59" width="78" height="25" fill="#abd9e9" stroke="none" stroke-width="0" opacity="1"/>
		<rect x="155" y="84" width="78" height="127" fill="#e0f3f8" stroke="none" stroke-width="0" opacity="1"/>
		<rect x="155" y="59" width="78" height="152" fill="none" stroke="#74add1" stroke-width="2" opacity="1"/>
		<line x1="155" y1="84" x2="233" y2="84" stroke="#74add1" stroke-width="1"/>
	</g>
	<text x="164" y="76.75" fill="#000000" font-family="Verdana" font-size="12">PRODUCT</text>
	<text x="160" y="101.8" fill="#000000" font-family="Verdana" font-size="12">code</text>
	<text x="160" y="118.8" fill="#000000" font-family="Verdana" font-size="12">name</text>
	<text x="160" y="135.8" fill="#000000" font-family="Verdana" font-size="12">description</text>
	<text x="160" y="152.8" fill="#000000" font-family="Verdana" font-size="12">picture</text>
	<text x="160" y="169.8" fill="#000000" font-family="Verdana" font-size="12">price</text>
	<text x="160" y="186.8" fill="#000000" font-family="Verdana" font-size="12">rate</text>
	<text x="160" y="203.8" fill="#000000" font-family="Verdana" font-size="12">status</text>
</g>

<!-- Entity CATEGORY -->
<g>
	<g>
		<rect x="270" y="202" width="82" height="25" fill="#abd9e9" stroke="none" stroke-width="0" opacity="1"/>
		<rect x="270" y="227" width="82" height="93" fill="#e0f3f8" stroke="none" stroke-width="0" opacity="1"/>
		<rect x="270" y="202" width="82" height="118" fill="none" stroke="#74add1" stroke-width="2" opacity="1"/>
		<line x1="270" y1="227" x2="352" y2="227" stroke="#74add1" stroke-width="1"/>
	</g>
	<text x="278" y="219.75" fill="#000000" font-family="Verdana" font-size="12">CATEGORY</text>
	<text x="275" y="244.8" fill="#000000" font-family="Verdana" font-size="12">code</text>
	<text x="275" y="261.8" fill="#000000" font-family="Verdana" font-size="12">name</text>
	<text x="275" y="278.8" fill="#000000" font-family="Verdana" font-size="12">subtitle</text>
	<text x="275" y="295.8" fill="#000000" font-family="Verdana" font-size="12">picture</text>
	<text x="275" y="312.8" fill="#000000" font-family="Verdana" font-size="12">home order</text>
</g>
</svg>